<svg width="1000" height="800" viewBox="0 0 1000 800" xmlns="http://www.w3.org/2000/svg">
  <rect width="1000" height="800" fill="#E6DDD8"/>
  <rect x="115" y="340" width="440" height="300" rx="18" transform="rotate(-8 115 340)" fill="#F8F3F0"/>
  <rect x="175" y="390" width="280" height="22" rx="11" transform="rotate(-8 175 390)" fill="#DDC0B4"/>
  <rect x="190" y="440" width="210" height="16" rx="8" transform="rotate(-8 190 440)" fill="#E2D5CF"/>
  <rect x="205" y="485" width="250" height="16" rx="8" transform="rotate(-8 205 485)" fill="#E2D5CF"/>
  <path d="M590 275L810 620" stroke="#A97561" stroke-width="18" stroke-linecap="round"/>
  <path d="M800 610L850 665" stroke="#D1A08C" stroke-width="34" stroke-linecap="round"/>
  <circle cx="760" cy="230" r="105" fill="#F8F3F0"/>
  <path d="M720 225C750 175 790 175 820 225C790 275 750 275 720 225Z" fill="#DDC0B4"/>
  <path d="M100 190C175 145 250 135 345 145" stroke="#C8A18F" stroke-width="6" fill="none"/>
  <circle cx="128" cy="175" r="12" fill="#B9836F"/>
  <circle cx="190" cy="150" r="12" fill="#B9836F"/>
  <circle cx="255" cy="145" r="12" fill="#B9836F"/>
</svg>
